<svg id="svg" version="1.1" xmlns="http://www.w3.org/2000/svg" xmlns:xlink="http://www.w3.org/1999/xlink" width="400" height="121.09090909090908" viewBox="0, 0, 400,121.09090909090908"><g id="svgg"><path id="path0" d="M55.618 2.104 C 55.554 2.169,54.657 2.283,53.625 2.358 C 48.487 2.732,42.095 4.323,37.000 6.497 C 36.313 6.791,35.391 7.175,34.951 7.351 C 33.931 7.759,31.188 9.181,30.000 9.916 C 29.496 10.228,28.801 10.639,28.457 10.829 C 26.787 11.751,22.298 15.049,21.417 16.002 C 21.142 16.299,20.692 16.682,20.417 16.852 C 19.813 17.226,15.667 21.320,15.667 21.542 C 15.667 21.629,15.195 22.198,14.617 22.808 C 14.040 23.418,13.347 24.208,13.076 24.565 C 11.987 25.998,11.655 26.455,11.067 27.333 C 10.730 27.837,10.239 28.562,9.977 28.944 C 9.715 29.326,9.500 29.689,9.500 29.752 C 9.500 29.814,9.338 30.092,9.141 30.370 C 8.943 30.647,8.374 31.671,7.876 32.645 C 7.377 33.620,6.870 34.529,6.748 34.667 C 6.626 34.804,6.471 35.142,6.404 35.417 C 6.338 35.692,6.032 36.413,5.725 37.019 C 5.418 37.626,5.167 38.230,5.167 38.361 C 5.167 38.492,5.099 38.671,5.016 38.758 C 4.449 39.354,2.304 46.885,2.028 49.250 C 1.964 49.800,1.846 50.353,1.766 50.480 C 1.056 51.602,1.066 68.083,1.777 69.206 C 1.851 69.322,1.965 69.867,2.030 70.417 C 2.356 73.150,3.779 77.988,5.289 81.500 C 5.703 82.462,6.146 83.534,6.273 83.882 C 6.516 84.549,7.602 86.684,8.199 87.667 C 9.964 90.575,11.178 92.472,11.667 93.085 C 11.987 93.487,12.583 94.289,12.989 94.866 C 14.805 97.445,20.935 103.646,22.735 104.725 C 23.018 104.895,23.400 105.197,23.583 105.398 C 23.941 105.788,27.717 108.354,29.743 109.585 C 32.255 111.109,38.473 113.918,41.000 114.670 C 41.688 114.875,42.813 115.211,43.500 115.416 C 45.017 115.870,47.475 116.414,49.167 116.670 C 49.854 116.774,50.754 116.936,51.167 117.030 C 54.425 117.772,65.671 117.768,69.250 117.023 C 69.708 116.927,70.646 116.768,71.333 116.668 C 72.924 116.437,75.230 115.916,76.833 115.426 C 77.521 115.216,78.533 114.914,79.083 114.755 C 81.517 114.053,88.251 111.057,90.465 109.691 C 92.312 108.552,96.458 105.764,97.068 105.251 C 97.443 104.936,98.226 104.281,98.808 103.797 C 101.991 101.147,107.085 95.628,108.985 92.770 C 109.115 92.576,109.500 92.004,109.841 91.500 C 110.182 90.996,110.610 90.321,110.793 90.000 C 110.975 89.679,111.445 88.854,111.836 88.167 C 112.226 87.479,112.719 86.654,112.931 86.333 C 113.926 84.824,116.892 77.148,117.408 74.750 C 117.467 74.475,117.582 73.987,117.664 73.667 C 118.393 70.807,118.833 68.525,118.833 67.605 C 118.833 66.748,119.074 66.971,119.488 68.210 C 120.296 70.631,121.330 72.615,122.432 73.860 C 122.729 74.196,123.056 74.627,123.158 74.818 C 123.440 75.344,126.068 77.238,127.677 78.075 C 133.580 81.144,141.498 80.633,147.190 76.815 C 149.826 75.047,149.690 75.697,149.631 65.181 C 149.568 53.908,150.530 55.083,141.363 55.083 C 132.521 55.083,132.971 54.816,132.833 60.167 C 132.746 63.570,132.333 63.556,132.333 60.150 C 132.333 53.921,135.685 51.117,139.871 53.843 C 141.371 54.821,143.440 54.677,144.289 53.536 C 144.543 53.195,145.241 52.429,145.841 51.833 C 149.049 48.647,149.643 46.513,147.910 44.397 C 144.557 40.305,135.493 38.848,129.243 41.396 C 124.765 43.222,121.810 46.427,119.575 51.882 C 119.078 53.095,118.840 53.109,118.836 51.927 C 118.833 51.105,118.580 49.645,118.143 47.917 C 117.838 46.716,117.683 46.038,117.391 44.632 C 117.303 44.209,115.872 39.984,115.258 38.333 C 114.916 37.415,111.708 31.014,111.415 30.667 C 111.299 30.529,111.006 30.042,110.764 29.583 C 110.522 29.125,109.917 28.188,109.420 27.500 C 108.923 26.813,108.332 25.981,108.106 25.652 C 107.881 25.323,107.595 24.948,107.471 24.818 C 107.347 24.689,107.105 24.358,106.933 24.083 C 106.260 23.008,101.221 17.663,100.333 17.083 C 100.013 16.874,99.373 16.338,98.912 15.893 C 98.451 15.448,97.634 14.783,97.096 14.417 C 96.558 14.050,95.848 13.522,95.517 13.243 C 94.791 12.630,93.029 11.477,91.333 10.503 C 90.646 10.108,89.783 9.583,89.417 9.337 C 88.664 8.831,85.811 7.513,82.250 6.027 C 79.980 5.080,74.856 3.578,71.833 2.975 C 70.828 2.774,68.782 2.505,66.750 2.308 C 64.675 2.106,55.779 1.943,55.618 2.104 M64.250 4.920 C 64.892 5.055,65.787 5.167,66.240 5.167 C 66.693 5.167,67.480 5.238,67.990 5.326 C 68.500 5.414,69.442 5.570,70.083 5.672 C 74.098 6.313,79.661 7.970,83.212 9.581 C 84.150 10.007,85.254 10.505,85.667 10.690 C 86.610 11.111,88.298 12.085,91.484 14.045 C 94.142 15.680,96.773 17.816,100.052 21.000 C 102.158 23.045,102.958 23.921,104.887 26.298 C 106.229 27.951,108.966 32.181,110.142 34.417 C 113.088 40.022,114.943 45.572,115.849 51.500 C 115.940 52.096,116.086 53.000,116.174 53.510 C 116.381 54.714,116.381 64.898,116.174 65.946 C 116.087 66.388,115.926 67.425,115.816 68.250 C 115.479 70.790,114.404 75.224,113.678 77.060 C 113.492 77.531,113.046 78.667,112.686 79.583 C 111.592 82.370,110.858 84.030,110.437 84.667 C 110.216 85.000,109.811 85.718,109.536 86.261 C 108.411 88.489,106.963 90.605,103.807 94.637 C 103.085 95.560,97.684 100.946,96.809 101.617 C 89.252 107.412,85.667 109.405,78.250 111.939 C 76.159 112.653,72.506 113.559,69.573 114.091 C 65.016 114.917,55.677 114.970,51.333 114.195 C 41.045 112.357,32.194 108.549,25.353 103.015 C 24.493 102.319,23.481 101.515,23.103 101.227 C 22.292 100.609,17.007 95.229,16.167 94.165 C 12.833 89.945,10.556 86.256,8.606 81.917 C 7.806 80.137,6.168 75.804,6.165 75.458 C 6.163 75.344,5.985 74.688,5.768 74.000 C 5.434 72.938,4.820 69.943,4.161 66.157 C 3.954 64.968,3.950 54.732,4.156 53.510 C 5.435 45.916,7.545 38.994,9.600 35.656 C 9.801 35.329,10.283 34.429,10.672 33.656 C 13.037 28.949,18.747 21.945,23.144 18.357 C 25.325 16.577,27.752 14.721,28.203 14.487 C 28.412 14.378,29.084 13.960,29.696 13.557 C 34.749 10.229,41.304 7.543,47.750 6.158 C 50.051 5.664,51.302 5.472,54.250 5.161 C 55.075 5.075,56.050 4.936,56.417 4.854 C 57.563 4.598,62.942 4.642,64.250 4.920 M50.917 14.332 C 42.383 16.143,34.823 19.812,28.792 25.072 C 27.275 26.394,27.253 26.359,31.918 30.092 C 32.497 30.555,33.270 31.193,33.636 31.509 C 34.003 31.825,34.805 32.496,35.420 33.000 C 36.035 33.504,37.046 34.367,37.667 34.917 C 38.288 35.467,39.273 36.309,39.856 36.788 C 40.439 37.267,41.260 37.942,41.680 38.288 C 42.100 38.634,43.145 39.479,44.001 40.167 C 44.858 40.854,46.026 41.829,46.598 42.333 C 47.603 43.219,48.275 43.789,50.827 45.917 C 51.487 46.467,52.482 47.312,53.038 47.795 C 54.217 48.818,54.778 49.029,55.112 48.573 C 55.531 47.999,55.351 14.380,54.926 14.070 C 54.468 13.734,53.409 13.804,50.917 14.332 M65.458 14.119 C 65.049 14.573,65.001 48.321,65.409 48.660 C 65.759 48.951,66.246 48.739,67.251 47.859 C 67.737 47.432,68.678 46.633,69.342 46.083 C 70.005 45.533,70.968 44.707,71.482 44.247 C 71.996 43.787,72.717 43.190,73.083 42.920 C 73.450 42.650,74.093 42.126,74.511 41.756 C 74.930 41.386,75.823 40.633,76.496 40.083 C 77.168 39.533,78.113 38.746,78.595 38.333 C 79.076 37.921,79.973 37.171,80.588 36.667 C 81.202 36.162,82.053 35.444,82.477 35.070 C 82.902 34.697,83.592 34.134,84.011 33.820 C 84.765 33.255,85.549 32.599,87.581 30.833 C 88.162 30.329,89.179 29.467,89.842 28.917 C 92.924 26.361,92.952 26.292,91.425 24.943 C 85.968 20.122,76.992 15.687,70.250 14.481 C 69.700 14.383,68.912 14.234,68.500 14.150 C 66.709 13.785,65.768 13.776,65.458 14.119 M52.500 30.286 L 52.500 43.573 51.542 42.645 C 51.015 42.135,50.321 41.542,50.000 41.327 C 49.679 41.112,49.202 40.718,48.941 40.451 C 48.679 40.184,48.196 39.784,47.869 39.562 C 47.541 39.339,46.931 38.858,46.512 38.491 C 45.529 37.630,43.801 36.160,42.411 35.000 C 41.806 34.496,40.867 33.690,40.324 33.208 C 39.781 32.727,39.277 32.333,39.204 32.333 C 39.131 32.333,38.724 32.006,38.300 31.605 C 37.876 31.204,37.279 30.704,36.973 30.493 C 36.667 30.282,35.950 29.691,35.380 29.179 C 34.809 28.668,33.860 27.837,33.271 27.333 C 31.986 26.235,31.970 26.162,32.875 25.519 C 36.911 22.654,39.705 21.061,42.682 19.925 C 43.544 19.597,44.550 19.193,44.917 19.029 C 46.177 18.464,51.185 17.068,52.125 17.019 L 52.500 17.000 52.500 30.286 M70.342 17.499 C 73.278 18.206,73.954 18.418,76.583 19.454 C 80.764 21.101,84.016 22.910,87.403 25.473 L 88.358 26.196 87.319 27.139 C 86.747 27.659,86.123 28.190,85.931 28.320 C 85.740 28.450,85.171 28.918,84.667 29.359 C 84.162 29.801,83.225 30.615,82.583 31.169 C 81.942 31.724,80.912 32.625,80.296 33.172 C 79.679 33.719,79.107 34.167,79.024 34.167 C 78.941 34.167,78.583 34.448,78.228 34.792 C 77.874 35.137,77.321 35.600,77.000 35.822 C 76.679 36.044,76.042 36.552,75.583 36.952 C 74.462 37.929,72.748 39.385,71.407 40.500 C 70.800 41.004,69.916 41.763,69.443 42.185 C 68.970 42.608,68.415 43.042,68.208 43.150 L 67.833 43.345 67.833 30.173 C 67.833 19.465,67.874 17.000,68.050 17.000 C 68.170 17.000,69.201 17.225,70.342 17.499 M20.778 34.208 C 19.298 35.695,16.337 41.566,15.124 45.417 C 13.926 49.220,13.767 49.878,13.353 52.750 C 13.260 53.392,13.094 54.479,12.983 55.167 C 12.645 57.268,12.597 61.851,12.894 63.667 C 13.037 64.537,13.243 65.925,13.352 66.750 C 14.684 76.800,21.275 88.708,28.698 94.476 C 33.843 98.474,34.940 99.213,38.083 100.792 C 42.314 102.917,46.466 104.405,50.083 105.092 C 54.503 105.931,54.755 105.935,55.158 105.182 C 55.284 104.948,55.324 98.436,55.294 83.460 L 55.250 62.072 54.750 61.467 C 54.475 61.134,53.837 60.541,53.333 60.148 C 52.829 59.756,52.069 59.130,51.644 58.759 C 51.219 58.387,50.368 57.671,49.753 57.167 C 49.138 56.663,48.199 55.875,47.667 55.417 C 47.135 54.958,46.195 54.171,45.578 53.667 C 44.961 53.163,44.035 52.371,43.520 51.907 C 43.005 51.443,42.246 50.810,41.833 50.499 C 41.421 50.188,40.776 49.668,40.400 49.342 C 40.024 49.016,39.173 48.300,38.509 47.750 C 37.845 47.200,36.902 46.413,36.413 46.000 C 35.924 45.587,34.986 44.800,34.329 44.250 C 33.672 43.700,32.785 42.948,32.359 42.578 C 31.932 42.208,31.208 41.613,30.750 41.255 C 30.292 40.897,29.572 40.299,29.152 39.927 C 28.731 39.555,27.843 38.800,27.178 38.250 C 26.513 37.700,25.571 36.912,25.086 36.500 C 21.847 33.749,21.447 33.536,20.778 34.208 M97.965 34.292 C 97.090 34.967,95.855 35.981,94.978 36.745 C 94.554 37.114,93.660 37.867,92.992 38.417 C 92.324 38.967,91.396 39.764,90.930 40.189 C 90.464 40.615,89.768 41.215,89.382 41.523 C 88.023 42.610,86.249 44.067,86.167 44.163 C 86.121 44.217,85.708 44.556,85.250 44.917 C 84.792 45.278,84.069 45.875,83.644 46.245 C 83.219 46.614,82.368 47.329,81.753 47.833 C 81.138 48.337,80.197 49.125,79.662 49.583 C 79.127 50.042,78.117 50.904,77.418 51.500 C 76.718 52.096,75.844 52.842,75.475 53.158 C 75.106 53.474,74.330 54.111,73.751 54.574 C 73.173 55.038,72.154 55.867,71.489 56.417 C 70.823 56.967,69.956 57.679,69.563 58.000 C 67.242 59.892,66.511 60.530,65.875 61.222 L 65.167 61.993 65.167 83.548 C 65.167 106.595,65.127 105.515,65.989 105.721 C 67.140 105.996,75.517 103.917,78.167 102.699 C 78.579 102.509,79.905 101.904,81.112 101.355 C 84.720 99.713,87.430 97.929,91.917 94.242 C 94.158 92.401,94.582 91.948,97.886 87.868 C 102.160 82.591,105.483 75.406,106.726 68.750 C 106.863 68.017,107.020 67.192,107.075 66.917 C 107.513 64.726,107.746 57.516,107.448 55.333 C 106.496 48.344,104.764 42.728,102.205 38.333 C 101.698 37.462,101.050 36.351,100.766 35.863 C 99.548 33.771,99.022 33.476,97.965 34.292 M322.167 34.759 C 316.820 36.512,315.083 43.469,318.983 47.515 C 319.451 48.000,319.833 48.416,319.833 48.439 C 319.833 48.462,317.664 48.504,315.012 48.532 C 308.268 48.604,308.583 48.319,308.583 54.333 C 308.583 60.258,308.391 60.061,314.255 60.133 L 318.320 60.183 318.368 68.967 L 318.417 77.750 318.805 78.294 C 319.592 79.398,319.699 79.417,325.250 79.417 C 333.050 79.417,332.331 80.982,332.331 64.000 C 332.331 49.091,332.366 49.365,330.417 48.650 C 329.950 48.478,329.938 48.453,330.237 48.275 C 333.793 46.150,334.310 40.056,331.209 36.805 C 329.022 34.511,325.413 33.695,322.167 34.759 M327.753 37.501 C 329.681 38.435,330.500 39.827,330.500 42.170 C 330.500 45.850,327.107 48.007,323.166 46.833 C 318.160 45.342,318.472 38.107,323.583 37.146 C 324.812 36.915,326.911 37.094,327.753 37.501 M22.594 38.352 C 22.863 38.638,23.352 39.043,23.680 39.253 C 24.008 39.463,24.636 39.980,25.076 40.401 C 25.515 40.822,25.941 41.167,26.022 41.167 C 26.103 41.167,26.614 41.560,27.157 42.042 C 27.701 42.523,28.641 43.329,29.246 43.833 C 29.852 44.337,30.907 45.237,31.591 45.833 C 32.274 46.429,33.190 47.227,33.625 47.606 C 34.060 47.985,34.792 48.578,35.250 48.924 C 35.708 49.270,36.121 49.600,36.167 49.659 C 36.212 49.718,36.512 49.944,36.833 50.162 C 37.154 50.380,37.883 50.976,38.454 51.487 C 39.024 51.998,39.961 52.813,40.537 53.296 C 41.112 53.780,42.047 54.568,42.614 55.046 C 43.181 55.525,44.141 56.329,44.747 56.833 C 45.353 57.337,46.239 58.093,46.716 58.512 C 47.193 58.931,47.846 59.451,48.167 59.667 C 48.487 59.883,49.142 60.402,49.621 60.821 C 50.100 61.240,50.937 61.958,51.481 62.417 L 52.470 63.250 52.485 82.958 C 52.493 93.798,52.469 102.667,52.430 102.667 C 52.326 102.667,50.429 102.202,48.917 101.806 C 42.691 100.174,37.852 97.824,33.000 94.077 C 32.587 93.758,32.027 93.350,31.754 93.169 C 31.029 92.689,25.827 87.511,25.298 86.741 C 25.049 86.379,24.636 85.804,24.381 85.463 C 21.443 81.540,19.636 78.213,18.108 73.917 C 17.402 71.932,16.836 69.977,16.663 68.924 C 16.571 68.370,16.378 67.429,16.232 66.833 C 15.469 63.701,15.410 55.494,16.135 53.167 C 16.235 52.846,16.475 51.758,16.670 50.750 C 17.055 48.755,18.232 45.067,19.011 43.420 C 19.280 42.851,19.500 42.289,19.500 42.173 C 19.500 41.926,20.218 40.537,20.839 39.583 C 21.078 39.217,21.371 38.673,21.490 38.375 C 21.761 37.700,21.974 37.695,22.594 38.352 M99.002 38.672 C 99.219 39.133,99.495 39.593,99.616 39.694 C 99.854 39.891,100.719 41.647,100.917 42.333 C 100.983 42.563,101.246 43.163,101.500 43.667 C 102.161 44.975,103.507 49.204,103.860 51.083 C 104.889 56.554,104.987 61.260,104.180 66.500 C 104.088 67.096,103.970 67.883,103.917 68.250 C 103.721 69.614,102.014 74.932,101.348 76.250 C 101.071 76.800,100.841 77.345,100.839 77.462 C 100.831 77.772,99.522 80.326,99.061 80.931 C 98.844 81.215,98.667 81.496,98.667 81.554 C 98.667 81.612,98.385 82.083,98.042 82.600 C 97.698 83.117,97.290 83.737,97.135 83.978 C 96.980 84.219,96.775 84.506,96.680 84.615 C 96.584 84.724,96.298 85.106,96.045 85.464 C 94.817 87.196,94.007 88.107,91.642 90.417 C 90.234 91.792,88.639 93.217,88.098 93.583 C 87.557 93.950,86.882 94.440,86.599 94.673 C 83.309 97.375,77.398 100.166,71.500 101.804 C 70.287 102.141,68.108 102.667,67.924 102.667 C 67.874 102.667,67.833 93.846,67.833 83.066 L 67.833 63.466 68.875 62.484 C 69.448 61.944,69.974 61.502,70.043 61.501 C 70.113 61.501,70.614 61.106,71.157 60.625 C 71.701 60.144,72.640 59.337,73.244 58.833 C 74.646 57.664,76.352 56.213,77.417 55.285 C 77.875 54.885,78.512 54.378,78.833 54.157 C 79.154 53.936,79.829 53.361,80.333 52.880 C 80.837 52.398,81.307 52.003,81.376 52.002 C 81.446 52.001,81.947 51.606,82.491 51.125 C 83.034 50.644,83.973 49.837,84.577 49.333 C 85.182 48.829,86.160 48.004,86.750 47.500 C 87.340 46.996,88.319 46.171,88.925 45.667 C 89.531 45.163,90.377 44.445,90.805 44.072 C 91.233 43.698,91.846 43.216,92.167 43.000 C 92.487 42.784,93.143 42.265,93.623 41.845 C 94.103 41.426,94.985 40.671,95.583 40.167 C 96.182 39.662,97.026 38.933,97.461 38.546 C 98.461 37.653,98.528 37.659,99.002 38.672 M279.960 40.734 C 278.245 41.356,278.319 40.443,278.371 60.365 L 278.417 77.750 278.805 78.294 C 279.645 79.472,278.970 79.411,291.833 79.470 C 307.758 79.542,306.586 80.084,306.472 72.698 C 306.382 66.802,306.804 67.101,298.458 67.034 L 292.333 66.985 292.332 55.617 C 292.331 41.971,292.300 41.695,290.667 40.876 C 289.881 40.482,280.979 40.364,279.960 40.734 M379.083 40.811 C 377.772 41.407,377.360 42.600,376.887 47.167 C 376.763 48.371,376.690 48.438,375.373 48.558 C 369.614 49.085,369.507 49.193,369.507 54.500 C 369.507 59.578,369.961 60.156,373.958 60.163 L 376.167 60.167 376.167 64.542 C 376.167 71.463,376.954 74.028,379.945 76.858 C 383.561 80.279,391.198 81.035,399.060 78.750 L 400.025 78.469 399.971 74.193 C 399.886 67.482,399.488 67.087,393.732 67.998 C 390.245 68.550,389.667 67.843,389.667 63.022 L 389.667 60.167 393.792 60.166 C 398.313 60.165,398.935 60.073,399.573 59.316 L 400.000 58.808 400.000 54.333 L 400.000 49.859 399.593 49.375 C 398.940 48.600,398.279 48.500,393.785 48.500 L 389.693 48.500 389.638 45.375 C 389.552 40.480,389.586 40.507,383.667 40.507 C 380.235 40.507,379.667 40.545,379.083 40.811 M139.178 42.831 C 141.749 43.374,143.325 44.114,145.375 45.743 C 146.753 46.839,146.737 46.876,143.348 50.518 C 142.103 51.855,141.853 51.913,140.609 51.147 C 137.075 48.973,132.744 50.279,130.997 54.047 C 129.091 58.157,129.527 64.682,131.909 67.679 C 133.529 69.717,136.395 70.668,138.497 69.862 C 139.522 69.470,139.661 69.113,139.664 66.875 C 139.667 64.418,139.597 64.333,137.537 64.333 C 135.274 64.333,135.333 64.424,135.333 60.980 C 135.333 59.344,135.406 58.008,135.506 57.822 C 135.796 57.280,146.692 57.326,147.074 57.870 C 147.379 58.306,147.471 72.451,147.173 73.233 C 146.424 75.203,140.728 77.333,136.209 77.333 C 128.484 77.333,122.778 72.707,121.409 65.333 C 120.579 60.864,120.497 59.640,120.913 57.917 C 121.046 57.367,121.157 56.634,121.161 56.289 C 121.183 53.886,123.433 49.237,125.722 46.862 C 128.840 43.626,134.668 41.880,139.178 42.831 M289.284 43.833 C 289.449 44.158,289.496 46.996,289.498 56.676 C 289.500 67.140,289.537 69.154,289.736 69.426 C 289.963 69.736,290.260 69.752,296.695 69.793 C 303.294 69.836,303.422 69.843,303.708 70.187 C 304.134 70.698,304.148 76.227,303.724 76.695 C 303.318 77.144,281.351 77.172,280.979 76.724 C 280.636 76.311,280.638 44.020,280.981 43.606 C 281.187 43.358,281.639 43.332,285.143 43.372 L 289.074 43.417 289.284 43.833 M387.074 43.704 C 387.286 44.007,387.333 44.639,387.333 47.178 C 387.333 51.218,386.740 50.806,392.643 50.867 C 398.399 50.928,397.833 50.550,397.833 54.333 C 397.833 58.117,398.399 57.739,392.643 57.799 C 388.588 57.842,387.885 57.886,387.630 58.117 C 387.159 58.543,387.184 66.846,387.660 68.149 C 388.547 70.575,390.407 71.145,395.304 70.493 C 397.259 70.232,397.159 70.134,397.914 73.060 C 398.692 76.073,398.631 76.233,396.500 76.719 C 394.288 77.224,393.135 77.333,390.029 77.333 L 386.847 77.333 385.235 76.757 C 379.915 74.856,378.500 71.954,378.500 62.944 C 378.500 57.322,378.791 57.833,375.590 57.833 C 372.264 57.833,372.417 57.992,372.417 54.521 C 372.417 51.086,372.234 51.293,375.376 51.159 C 378.778 51.013,379.033 50.834,379.349 48.366 C 380.060 42.797,379.598 43.333,383.683 43.333 C 386.730 43.333,386.821 43.343,387.074 43.704 M258.667 47.935 C 255.604 48.404,255.069 48.516,253.442 49.029 C 250.582 49.929,248.207 51.768,247.124 53.917 C 245.093 57.950,245.773 62.919,248.730 65.654 C 249.268 66.152,249.271 66.232,248.761 66.465 C 248.538 66.566,247.956 67.221,247.469 67.919 C 246.982 68.618,246.156 69.803,245.633 70.553 C 245.022 71.430,244.613 72.220,244.487 72.769 L 244.291 73.620 243.687 72.943 C 242.797 71.945,242.630 71.783,241.980 71.287 C 241.163 70.664,239.324 70.007,236.775 69.427 L 236.300 69.319 237.192 68.679 C 239.381 67.108,240.795 64.402,240.955 61.479 L 241.043 59.875 242.203 59.792 C 244.560 59.623,244.898 58.999,244.974 54.667 C 245.050 50.283,244.917 49.754,243.453 48.639 C 243.433 48.624,240.829 48.553,237.667 48.481 C 234.504 48.409,231.392 48.276,230.750 48.186 C 227.529 47.732,226.714 47.756,223.083 48.412 C 214.984 49.877,211.197 58.714,215.529 66.041 L 215.898 66.665 215.554 67.129 C 214.000 69.232,213.717 72.313,214.839 74.931 C 215.241 75.868,215.276 75.672,214.558 76.526 C 212.903 78.494,212.287 82.387,213.288 84.554 C 215.244 88.792,221.407 90.794,230.167 90.038 C 238.662 89.304,243.940 85.937,245.078 80.524 C 245.369 79.140,245.410 77.349,245.170 76.510 C 244.950 75.745,244.867 75.733,246.839 76.744 C 252.432 79.610,256.680 80.444,262.750 79.868 C 265.419 79.615,268.590 78.701,269.881 77.812 C 273.817 75.104,274.989 73.246,275.128 69.500 C 275.278 65.467,274.150 63.069,271.086 60.903 L 270.595 60.556 271.006 60.022 C 271.232 59.728,271.608 59.247,271.841 58.952 C 275.506 54.328,275.542 52.514,272.003 50.746 C 268.848 49.171,266.425 48.422,263.083 47.991 C 260.700 47.683,260.342 47.679,258.667 47.935 M172.476 47.913 C 172.432 47.956,171.855 48.069,171.192 48.163 C 169.749 48.368,167.749 49.112,166.496 49.910 C 165.419 50.596,165.235 50.625,165.107 50.125 C 164.740 48.697,163.809 48.466,158.664 48.531 C 152.257 48.612,152.917 46.845,152.917 63.917 C 152.917 81.284,152.083 79.417,159.833 79.417 C 167.268 79.417,166.715 80.081,166.833 71.000 L 166.917 64.583 167.710 63.409 C 168.514 62.219,169.379 61.542,170.904 60.909 C 171.575 60.631,171.841 60.632,176.417 60.921 C 178.697 61.065,179.322 60.512,179.919 57.820 C 180.069 57.140,180.420 55.650,180.697 54.509 C 181.805 49.949,181.119 48.900,176.500 48.088 C 175.155 47.852,172.646 47.743,172.476 47.913 M195.667 48.037 C 190.106 48.843,185.706 51.716,183.531 55.959 C 180.461 61.949,181.096 69.659,185.042 74.289 C 185.477 74.800,185.833 75.278,185.833 75.350 C 185.833 75.624,188.312 77.325,189.787 78.063 C 195.416 80.880,203.100 80.670,209.082 77.535 C 211.531 76.252,212.041 74.660,210.757 72.306 C 208.872 68.853,208.892 68.973,210.177 68.768 C 213.298 68.269,213.576 60.513,210.674 54.864 C 208.145 49.939,201.957 47.124,195.667 48.037 M353.083 47.999 C 352.717 48.081,352.042 48.152,351.583 48.158 C 349.846 48.180,346.841 49.135,344.917 50.277 C 339.751 53.341,338.569 60.792,342.543 65.250 C 343.000 65.762,343.346 66.201,343.312 66.225 C 343.278 66.248,343.061 66.385,342.830 66.529 C 342.599 66.673,341.627 67.970,340.670 69.411 C 337.343 74.422,338.098 75.935,345.246 78.584 C 346.753 79.143,348.127 79.453,351.593 80.017 C 352.239 80.122,353.289 80.166,353.926 80.114 C 358.116 79.775,359.055 79.650,360.417 79.253 C 366.514 77.474,369.114 74.531,369.292 69.209 C 369.412 65.633,368.830 64.146,366.416 61.861 C 365.419 60.918,365.022 60.436,365.116 60.281 C 365.190 60.159,365.647 59.539,366.133 58.904 C 368.503 55.807,368.989 54.807,368.752 53.528 C 368.451 51.906,367.312 51.060,363.250 49.441 C 360.191 48.221,355.243 47.520,353.083 47.999 M176.907 50.753 C 178.723 51.304,178.780 51.505,178.010 54.609 C 177.741 55.695,177.459 56.876,177.383 57.234 C 177.175 58.217,176.592 58.584,175.651 58.325 C 171.420 57.161,166.677 59.145,164.944 62.803 L 164.417 63.917 164.333 70.298 C 164.262 75.726,164.213 76.703,164.000 76.837 C 163.399 77.216,156.208 77.032,155.926 76.630 C 155.552 76.095,155.530 51.751,155.903 51.240 C 156.122 50.941,156.363 50.917,159.149 50.917 C 162.858 50.917,162.777 50.871,163.008 53.098 C 163.347 56.370,163.518 56.465,165.390 54.419 C 168.453 51.073,173.092 49.596,176.907 50.753 M201.833 51.018 C 207.508 52.832,210.388 57.616,209.891 64.401 C 209.722 66.701,210.524 66.500,201.518 66.500 C 193.023 66.500,192.965 66.507,193.225 67.542 C 193.944 70.409,199.424 71.832,203.973 70.333 C 206.062 69.645,206.221 69.661,206.773 70.625 C 207.023 71.060,207.513 71.899,207.863 72.489 C 208.739 73.965,208.725 74.521,207.796 75.107 C 202.854 78.227,194.073 78.125,189.629 74.896 C 180.916 68.565,183.210 53.885,193.333 51.187 C 194.021 51.004,194.771 50.776,195.000 50.682 C 195.822 50.342,200.428 50.569,201.833 51.018 M236.266 50.798 C 243.217 50.943,242.500 50.555,242.500 54.167 C 242.500 57.557,242.618 57.385,240.224 57.474 C 238.249 57.547,237.979 57.721,238.321 58.703 C 240.111 63.837,234.257 69.065,227.251 68.589 C 224.152 68.379,224.172 68.377,223.731 68.889 C 223.241 69.459,223.226 69.985,223.681 70.564 C 224.446 71.537,224.643 71.571,230.167 71.696 C 236.821 71.847,238.116 72.076,240.282 73.483 C 242.518 74.936,243.376 78.580,242.092 81.171 C 240.440 84.505,237.365 86.275,231.407 87.322 C 228.527 87.829,222.597 87.496,220.064 86.687 C 214.849 85.021,213.659 80.371,217.680 77.375 C 219.072 76.337,219.092 76.129,217.931 74.760 C 216.104 72.606,216.277 70.291,218.440 67.949 C 219.607 66.685,219.604 66.397,218.414 65.150 C 214.886 61.451,215.845 54.954,220.305 52.346 C 222.847 50.859,224.384 50.508,227.917 50.606 C 229.383 50.647,233.141 50.733,236.266 50.798 M264.961 50.840 C 267.313 51.461,271.149 53.126,271.668 53.751 C 272.041 54.201,271.400 55.304,269.215 57.971 C 268.491 58.854,268.215 58.850,265.856 57.925 C 260.888 55.976,256.197 56.474,257.410 58.821 C 257.710 59.401,258.359 59.671,260.841 60.245 C 267.958 61.893,270.651 63.165,271.819 65.429 C 273.698 69.070,272.129 73.672,268.364 75.568 C 263.233 78.152,256.463 78.065,250.131 75.336 C 246.579 73.804,246.557 73.706,249.027 70.383 C 250.585 68.288,250.585 68.288,252.331 69.213 C 257.456 71.926,264.987 71.786,263.833 68.999 C 263.522 68.248,263.208 68.137,257.417 66.741 C 254.367 66.005,252.629 65.227,250.553 63.667 C 249.449 62.836,248.171 59.668,248.415 58.366 C 249.178 54.300,251.303 52.273,256.230 50.910 C 258.173 50.372,263.041 50.333,264.961 50.840 M359.128 50.843 C 362.709 51.796,366.000 53.424,366.000 54.242 C 366.000 54.617,363.609 58.023,363.042 58.458 C 362.672 58.741,361.854 58.719,361.260 58.409 C 357.473 56.434,352.008 56.165,351.565 57.930 C 351.284 59.051,351.927 59.552,354.333 60.085 C 359.499 61.231,360.738 61.605,362.698 62.612 C 364.534 63.556,365.475 64.385,366.056 65.572 C 370.674 75.004,356.378 81.045,343.667 75.034 C 341.018 73.781,341.007 73.726,342.828 71.009 C 344.679 68.246,344.627 68.269,346.652 69.253 C 350.846 71.290,356.828 71.837,357.917 70.282 C 358.554 69.373,357.916 68.357,356.443 67.935 C 355.302 67.607,352.497 66.914,351.250 66.652 C 340.263 64.338,339.853 53.160,350.672 50.904 C 351.353 50.762,351.942 50.613,351.982 50.573 C 352.246 50.310,357.931 50.524,359.128 50.843 M329.597 51.240 C 329.985 51.771,329.947 76.265,329.558 76.695 C 329.139 77.158,321.865 77.162,321.447 76.700 C 321.204 76.432,321.170 75.439,321.129 67.353 C 321.085 58.618,321.072 58.298,320.760 58.070 C 320.500 57.880,319.580 57.833,316.089 57.833 C 310.479 57.833,311.000 58.192,311.000 54.333 C 311.000 51.431,311.010 51.345,311.375 51.089 C 312.013 50.641,329.263 50.784,329.597 51.240 M226.237 56.564 C 224.782 57.242,224.225 58.360,224.379 60.297 C 224.699 64.324,230.184 64.588,230.905 60.611 C 231.460 57.545,228.899 55.325,226.237 56.564 M196.148 57.222 C 194.398 57.870,192.796 60.063,193.533 60.800 C 193.904 61.170,201.547 61.075,201.891 60.695 C 202.475 60.050,201.715 58.446,200.435 57.625 C 199.454 56.995,197.305 56.793,196.148 57.222 M228.074 59.204 C 228.639 60.011,228.095 61.152,227.365 60.690 C 227.069 60.502,227.061 59.169,227.355 58.983 C 227.694 58.768,227.789 58.797,228.074 59.204 M136.625 67.282 C 136.465 67.323,136.202 67.323,136.042 67.282 C 135.881 67.240,136.012 67.205,136.333 67.205 C 136.654 67.205,136.785 67.240,136.625 67.282 M222.875 78.596 C 220.420 81.032,225.593 83.322,230.960 82.175 C 233.922 81.542,235.150 80.371,234.165 79.119 C 233.550 78.337,232.655 78.196,227.833 78.124 L 223.417 78.059 222.875 78.596 " stroke="none" fill="#040404" fill-rule="evenodd"></path><path id="path1" d="M56.417 4.854 C 56.050 4.936,55.075 5.075,54.250 5.161 C 51.302 5.472,50.051 5.664,47.750 6.158 C 41.304 7.543,34.749 10.229,29.696 13.557 C 29.084 13.960,28.412 14.378,28.203 14.487 C 27.752 14.721,25.325 16.577,23.144 18.357 C 18.747 21.945,13.037 28.949,10.672 33.656 C 10.283 34.429,9.801 35.329,9.600 35.656 C 7.545 38.994,5.435 45.916,4.156 53.510 C 3.950 54.732,3.954 64.968,4.161 66.157 C 4.820 69.943,5.434 72.938,5.768 74.000 C 5.985 74.688,6.163 75.344,6.165 75.458 C 6.168 75.804,7.806 80.137,8.606 81.917 C 10.556 86.256,12.833 89.945,16.167 94.165 C 17.007 95.229,22.292 100.609,23.103 101.227 C 23.481 101.515,24.493 102.319,25.353 103.015 C 32.194 108.549,41.045 112.357,51.333 114.195 C 55.677 114.970,65.016 114.917,69.573 114.091 C 75.574 113.003,81.053 111.226,85.917 108.791 C 89.668 106.913,91.327 105.820,96.809 101.617 C 97.684 100.946,103.085 95.560,103.807 94.637 C 106.963 90.605,108.411 88.489,109.536 86.261 C 109.811 85.718,110.216 85.000,110.437 84.667 C 110.858 84.030,111.592 82.370,112.686 79.583 C 113.046 78.667,113.492 77.531,113.678 77.060 C 114.404 75.224,115.479 70.790,115.816 68.250 C 115.926 67.425,116.087 66.388,116.174 65.946 C 116.381 64.898,116.381 54.714,116.174 53.510 C 116.086 53.000,115.940 52.096,115.849 51.500 C 114.492 42.623,110.283 32.947,104.887 26.298 C 102.958 23.921,102.158 23.045,100.052 21.000 C 96.773 17.816,94.142 15.680,91.484 14.045 C 88.298 12.085,86.610 11.111,85.667 10.690 C 85.254 10.505,84.150 10.007,83.212 9.581 C 79.661 7.970,74.098 6.313,70.083 5.672 C 69.442 5.570,68.500 5.414,67.990 5.326 C 67.480 5.238,66.693 5.167,66.240 5.167 C 65.787 5.167,64.892 5.055,64.250 4.920 C 62.942 4.642,57.563 4.598,56.417 4.854 M54.926 14.070 C 55.351 14.380,55.531 47.999,55.112 48.573 C 54.778 49.029,54.217 48.818,53.038 47.795 C 52.482 47.312,51.487 46.467,50.827 45.917 C 48.275 43.789,47.603 43.219,46.598 42.333 C 46.026 41.829,44.858 40.854,44.001 40.167 C 43.145 39.479,42.100 38.634,41.680 38.288 C 41.260 37.942,40.439 37.267,39.856 36.788 C 39.273 36.309,38.288 35.467,37.667 34.917 C 37.046 34.367,36.035 33.504,35.420 33.000 C 34.805 32.496,34.003 31.825,33.636 31.509 C 33.270 31.193,32.497 30.555,31.918 30.092 C 28.416 27.290,27.833 26.732,27.833 26.181 C 27.833 25.318,34.503 20.587,38.667 18.497 C 44.103 15.767,53.681 13.159,54.926 14.070 M68.500 14.150 C 68.912 14.234,69.700 14.383,70.250 14.481 C 76.992 15.687,85.968 20.122,91.425 24.943 C 92.952 26.292,92.924 26.361,89.842 28.917 C 89.179 29.467,88.162 30.329,87.581 30.833 C 85.549 32.599,84.765 33.255,84.011 33.820 C 83.592 34.134,82.902 34.697,82.477 35.070 C 82.053 35.444,81.202 36.162,80.588 36.667 C 79.973 37.171,79.076 37.921,78.595 38.333 C 78.113 38.746,77.168 39.533,76.496 40.083 C 75.823 40.633,74.930 41.386,74.511 41.756 C 74.093 42.126,73.450 42.650,73.083 42.920 C 72.717 43.190,71.996 43.787,71.482 44.247 C 70.968 44.707,70.005 45.533,69.342 46.083 C 68.678 46.633,67.737 47.432,67.251 47.859 C 66.246 48.739,65.759 48.951,65.409 48.660 C 65.001 48.321,65.049 14.573,65.458 14.119 C 65.768 13.776,66.709 13.785,68.500 14.150 M22.182 34.209 C 22.784 34.585,23.453 35.113,25.086 36.500 C 25.571 36.912,26.513 37.700,27.178 38.250 C 27.843 38.800,28.731 39.555,29.152 39.927 C 29.572 40.299,30.292 40.897,30.750 41.255 C 31.208 41.613,31.932 42.208,32.359 42.578 C 32.785 42.948,33.672 43.700,34.329 44.250 C 34.986 44.800,35.924 45.587,36.413 46.000 C 36.902 46.413,37.845 47.200,38.509 47.750 C 39.173 48.300,40.024 49.016,40.400 49.342 C 40.776 49.668,41.421 50.188,41.833 50.499 C 42.246 50.810,43.005 51.443,43.520 51.907 C 44.035 52.371,44.961 53.163,45.578 53.667 C 46.195 54.171,47.135 54.958,47.667 55.417 C 48.199 55.875,49.138 56.663,49.753 57.167 C 50.368 57.671,51.219 58.387,51.644 58.759 C 52.069 59.130,52.829 59.756,53.333 60.148 C 53.837 60.541,54.475 61.134,54.750 61.467 L 55.250 62.072 55.294 83.460 C 55.324 98.436,55.284 104.948,55.158 105.182 C 54.755 105.935,54.503 105.931,50.083 105.092 C 46.466 104.405,42.314 102.917,38.083 100.792 C 34.940 99.213,33.843 98.474,28.698 94.476 C 21.275 88.708,14.684 76.800,13.352 66.750 C 13.243 65.925,13.037 64.537,12.894 63.667 C 12.597 61.851,12.645 57.268,12.983 55.167 C 13.094 54.479,13.260 53.392,13.353 52.750 C 13.767 49.878,13.926 49.220,15.124 45.417 C 16.086 42.361,17.517 39.244,19.207 36.516 C 20.963 33.683,21.131 33.553,22.182 34.209 M99.780 34.405 C 100.038 34.719,100.482 35.375,100.766 35.863 C 101.050 36.351,101.698 37.462,102.205 38.333 C 104.764 42.728,106.496 48.344,107.448 55.333 C 107.746 57.516,107.513 64.726,107.075 66.917 C 107.020 67.192,106.863 68.017,106.726 68.750 C 105.483 75.406,102.160 82.591,97.886 87.868 C 94.582 91.948,94.158 92.401,91.917 94.242 C 87.430 97.929,84.720 99.713,81.112 101.355 C 79.905 101.904,78.579 102.509,78.167 102.699 C 75.517 103.917,67.140 105.996,65.989 105.721 C 65.127 105.515,65.167 106.595,65.167 83.548 L 65.167 61.993 65.875 61.222 C 66.511 60.530,67.242 59.892,69.563 58.000 C 69.956 57.679,70.823 56.967,71.489 56.417 C 72.154 55.867,73.173 55.038,73.751 54.574 C 74.330 54.111,75.106 53.474,75.475 53.158 C 75.844 52.842,76.718 52.096,77.418 51.500 C 78.117 50.904,79.127 50.042,79.662 49.583 C 80.197 49.125,81.138 48.337,81.753 47.833 C 82.368 47.329,83.219 46.614,83.644 46.245 C 84.069 45.875,84.792 45.278,85.250 44.917 C 85.708 44.556,86.121 44.217,86.167 44.163 C 86.249 44.067,88.023 42.610,89.382 41.523 C 89.768 41.215,90.464 40.615,90.930 40.189 C 91.396 39.764,92.324 38.967,92.992 38.417 C 93.660 37.867,94.554 37.114,94.978 36.745 C 95.403 36.375,96.115 35.775,96.561 35.411 C 98.825 33.564,99.034 33.499,99.780 34.405 M323.583 37.146 C 318.472 38.107,318.160 45.342,323.166 46.833 C 327.107 48.007,330.500 45.850,330.500 42.170 C 330.500 38.451,327.651 36.381,323.583 37.146 M133.034 43.008 C 129.205 43.895,126.517 45.593,124.340 48.500 C 122.838 50.505,121.177 54.575,121.161 56.289 C 121.157 56.634,121.046 57.367,120.913 57.917 C 120.497 59.640,120.579 60.864,121.409 65.333 C 123.156 74.742,132.411 79.676,142.161 76.397 C 144.059 75.758,146.893 73.969,147.173 73.233 C 147.471 72.451,147.379 58.306,147.074 57.870 C 146.692 57.326,135.796 57.280,135.506 57.822 C 135.406 58.008,135.333 59.344,135.333 60.980 C 135.333 64.424,135.274 64.333,137.537 64.333 C 139.597 64.333,139.667 64.418,139.664 66.875 C 139.661 69.113,139.522 69.470,138.497 69.862 C 136.395 70.668,133.529 69.717,131.909 67.679 C 129.527 64.682,129.091 58.157,130.997 54.047 C 132.744 50.279,137.075 48.973,140.609 51.147 C 141.853 51.913,142.103 51.855,143.348 50.518 C 145.376 48.339,146.333 47.156,146.333 46.831 C 146.333 46.238,143.275 44.091,141.500 43.439 C 138.775 42.437,136.089 42.300,133.034 43.008 M280.981 43.606 C 280.638 44.020,280.636 76.311,280.979 76.724 C 281.351 77.172,303.318 77.144,303.724 76.695 C 304.148 76.227,304.134 70.698,303.708 70.187 C 303.422 69.843,303.294 69.836,296.695 69.793 C 290.260 69.752,289.963 69.736,289.736 69.426 C 289.537 69.154,289.500 67.140,289.498 56.676 C 289.496 46.996,289.449 44.158,289.284 43.833 L 289.074 43.417 285.143 43.372 C 281.639 43.332,281.187 43.358,280.981 43.606 M380.299 43.625 C 379.978 43.996,379.847 44.467,379.662 45.917 C 379.580 46.558,379.439 47.660,379.349 48.366 C 379.033 50.834,378.778 51.013,375.376 51.159 C 372.234 51.293,372.417 51.086,372.417 54.521 C 372.417 57.992,372.264 57.833,375.590 57.833 C 378.791 57.833,378.500 57.322,378.500 62.944 C 378.500 71.954,379.915 74.856,385.235 76.757 L 386.847 77.333 390.029 77.333 C 393.135 77.333,394.288 77.224,396.500 76.719 C 398.631 76.233,398.692 76.073,397.914 73.060 C 397.159 70.134,397.259 70.232,395.304 70.493 C 390.407 71.145,388.547 70.575,387.660 68.149 C 387.184 66.846,387.159 58.543,387.630 58.117 C 387.885 57.886,388.588 57.842,392.643 57.799 C 398.399 57.739,397.833 58.117,397.833 54.333 C 397.833 50.550,398.399 50.928,392.643 50.867 C 386.740 50.806,387.333 51.218,387.333 47.178 C 387.333 42.995,387.654 43.333,383.683 43.333 C 380.908 43.333,380.523 43.367,380.299 43.625 M170.250 51.055 C 168.316 51.745,167.010 52.649,165.390 54.419 C 163.518 56.465,163.347 56.370,163.008 53.098 C 162.777 50.871,162.858 50.917,159.149 50.917 C 156.363 50.917,156.122 50.941,155.903 51.240 C 155.530 51.751,155.552 76.095,155.926 76.630 C 156.208 77.032,163.399 77.216,164.000 76.837 C 164.213 76.703,164.262 75.726,164.333 70.298 L 164.417 63.917 164.944 62.803 C 166.677 59.145,171.420 57.161,175.651 58.325 C 176.592 58.584,177.175 58.217,177.383 57.234 C 177.459 56.876,177.741 55.695,178.010 54.609 C 178.615 52.171,178.633 51.595,178.115 51.255 C 176.651 50.296,172.662 50.194,170.250 51.055 M195.000 50.682 C 194.771 50.776,194.021 51.004,193.333 51.187 C 183.210 53.885,180.916 68.565,189.629 74.896 C 194.073 78.125,202.854 78.227,207.796 75.107 C 208.725 74.521,208.739 73.965,207.863 72.489 C 207.513 71.899,207.023 71.060,206.773 70.625 C 206.221 69.661,206.062 69.645,203.973 70.333 C 199.424 71.832,193.944 70.409,193.225 67.542 C 192.965 66.507,193.023 66.500,201.518 66.500 C 210.524 66.500,209.722 66.701,209.891 64.401 C 210.388 57.616,207.508 52.832,201.833 51.018 C 200.428 50.569,195.822 50.342,195.000 50.682 M224.209 50.764 C 222.488 51.147,220.021 52.317,219.021 53.224 C 215.642 56.292,215.355 61.942,218.414 65.150 C 219.604 66.397,219.607 66.685,218.440 67.949 C 216.277 70.291,216.104 72.606,217.931 74.760 C 219.092 76.129,219.072 76.337,217.680 77.375 C 213.659 80.371,214.849 85.021,220.064 86.687 C 222.597 87.496,228.527 87.829,231.407 87.322 C 237.365 86.275,240.440 84.505,242.092 81.171 C 243.376 78.580,242.518 74.936,240.282 73.483 C 238.116 72.076,236.821 71.847,230.167 71.696 C 224.643 71.571,224.446 71.537,223.681 70.564 C 223.226 69.985,223.241 69.459,223.731 68.889 C 224.172 68.377,224.152 68.379,227.251 68.589 C 234.257 69.065,240.111 63.837,238.321 58.703 C 237.979 57.721,238.249 57.547,240.224 57.474 C 242.618 57.385,242.500 57.557,242.500 54.167 C 242.500 50.555,243.217 50.943,236.266 50.798 C 233.141 50.733,229.383 50.647,227.917 50.606 C 226.009 50.553,224.954 50.598,224.209 50.764 M256.230 50.910 C 251.303 52.273,249.178 54.300,248.415 58.366 C 248.171 59.668,249.449 62.836,250.553 63.667 C 252.629 65.227,254.367 66.005,257.417 66.741 C 263.208 68.137,263.522 68.248,263.833 68.999 C 264.987 71.786,257.456 71.926,252.331 69.213 C 250.585 68.288,250.585 68.288,249.027 70.383 C 246.905 73.238,246.834 73.498,247.977 74.255 C 253.377 77.828,262.685 78.428,268.364 75.568 C 272.129 73.672,273.698 69.070,271.819 65.429 C 270.651 63.165,267.958 61.893,260.841 60.245 C 258.359 59.671,257.710 59.401,257.410 58.821 C 256.197 56.474,260.888 55.976,265.856 57.925 C 268.650 59.020,268.418 59.112,270.739 55.997 C 272.241 53.981,272.220 53.887,270.024 52.782 C 265.505 50.509,260.254 49.797,256.230 50.910 M351.982 50.573 C 351.942 50.613,351.353 50.762,350.672 50.904 C 346.232 51.830,343.603 54.122,342.930 57.653 C 342.142 61.789,345.523 65.446,351.250 66.652 C 352.497 66.914,355.302 67.607,356.443 67.935 C 357.916 68.357,358.554 69.373,357.917 70.282 C 356.828 71.837,350.846 71.290,346.652 69.253 C 344.627 68.269,344.679 68.246,342.828 71.009 C 341.007 73.726,341.018 73.781,343.667 75.034 C 352.596 79.257,363.459 77.740,366.204 71.888 C 367.946 68.171,366.604 64.620,362.698 62.612 C 360.738 61.605,359.499 61.231,354.333 60.085 C 351.927 59.552,351.284 59.051,351.565 57.930 C 352.008 56.165,357.473 56.434,361.260 58.409 C 361.854 58.719,362.672 58.741,363.042 58.458 C 363.609 58.023,366.000 54.617,366.000 54.242 C 366.000 53.424,362.709 51.796,359.128 50.843 C 357.931 50.524,352.246 50.310,351.982 50.573 M311.375 51.089 C 311.010 51.345,311.000 51.431,311.000 54.333 C 311.000 58.192,310.479 57.833,316.089 57.833 C 319.580 57.833,320.500 57.880,320.760 58.070 C 321.072 58.298,321.085 58.618,321.129 67.353 C 321.170 75.439,321.204 76.432,321.447 76.700 C 321.865 77.162,329.139 77.158,329.558 76.695 C 329.947 76.265,329.985 51.771,329.597 51.240 C 329.263 50.784,312.013 50.641,311.375 51.089 M229.178 56.625 C 231.945 58.027,231.461 62.559,228.458 63.358 C 225.832 64.057,223.693 61.478,224.482 58.563 C 225.022 56.567,227.250 55.648,229.178 56.625 M200.435 57.625 C 201.715 58.446,202.475 60.050,201.891 60.695 C 201.547 61.075,193.904 61.170,193.533 60.800 C 192.796 60.063,194.398 57.870,196.148 57.222 C 197.305 56.793,199.454 56.995,200.435 57.625 M233.040 78.441 C 235.787 79.315,234.631 81.391,230.960 82.175 C 228.565 82.687,226.957 82.616,224.338 81.882 C 222.411 81.342,221.705 79.757,222.875 78.596 L 223.417 78.059 227.833 78.124 C 231.157 78.174,232.445 78.252,233.040 78.441 " stroke="none" fill="#f4a43c" fill-rule="evenodd"></path></g></svg>